<?xml version="1.0" encoding="utf-8"?>
<!-- Generator: Adobe Illustrator 16.0.0, SVG Export Plug-In . SVG Version: 6.00 Build 0)  -->
<!DOCTYPE svg PUBLIC "-//W3C//DTD SVG 1.1//EN" "http://www.w3.org/Graphics/SVG/1.1/DTD/svg11.dtd">
<svg version="1.1" id="Layer_1" xmlns="http://www.w3.org/2000/svg" xmlns:xlink="http://www.w3.org/1999/xlink" x="0px" y="0px"
	 width="111.347px" height="84.321px" viewBox="0 0 111.347 84.321" enable-background="new 0 0 111.347 84.321"
	 xml:space="preserve">
<g id="Group" transform="translate(63.191223, 54.437060) rotate(-10.000000) translate(-63.191223, -54.437060) translate(7.318166, 11.294573)">
	<path id="Path" fill="#A1D5AC" d="M102.237-2.296c2.826,0.496,5.053,1.906,6.684,4.231c1.63,2.325,2.198,4.899,1.702,7.725
		L99.915,70.686c-0.496,2.825-1.906,5.053-4.231,6.683c-2.324,1.631-4.9,2.198-7.724,1.702L-0.189,63.603
		c-2.825-0.495-5.054-1.906-6.684-4.231c-1.63-2.324-2.197-4.899-1.703-7.725L2.134-9.378c0.496-2.825,1.906-5.053,4.231-6.684
		c2.325-1.631,4.9-2.198,7.726-1.702L102.237-2.296z"/>
	<path id="Path-Copy" fill="#154E4E" d="M101.391-4.108c2.825,0.496,5.053,1.906,6.684,4.231c1.631,2.325,2.197,4.899,1.702,7.725
		L99.068,68.873c-0.496,2.825-1.906,5.052-4.23,6.682c-2.325,1.631-4.9,2.198-7.726,1.703L-1.035,61.79
		c-2.825-0.496-5.053-1.906-6.684-4.23c-1.631-2.325-2.198-4.9-1.702-7.726L1.287-11.19c0.496-2.826,1.906-5.053,4.231-6.684
		c2.324-1.631,4.9-2.198,7.725-1.703L101.391-4.108z"/>
	<path id="Path_1_" fill="#FFFFFF" d="M92.287,67.683l10.709-61.025c0.174-0.989-0.001-1.857-0.526-2.604
		c-0.524-0.747-1.281-1.208-2.269-1.381L12.053-12.796c-0.988-0.173-1.856,0.002-2.603,0.526c-0.747,0.524-1.208,1.281-1.382,2.269
		L-2.641,51.025c-0.174,0.99,0.002,1.858,0.526,2.605c0.524,0.747,1.28,1.206,2.269,1.381l88.148,15.467
		c0.989,0.174,1.857-0.001,2.604-0.526C91.654,69.427,92.114,68.673,92.287,67.683z"/>
	<path id="Combined-Shape" fill="#E17334" d="M63.903,45.228c-0.707-0.125-1.264-0.476-1.671-1.058
		c-0.408-0.581-0.55-1.223-0.426-1.931l0.297-1.694c0.124-0.706,0.477-1.265,1.058-1.672c0.581-0.407,1.225-0.55,1.931-0.426
		l22.037,3.868c0.707,0.124,1.264,0.477,1.671,1.057c0.408,0.582,0.549,1.225,0.426,1.932l-0.297,1.695
		c-0.124,0.706-0.477,1.262-1.059,1.671c-0.582,0.408-1.225,0.55-1.931,0.425L63.903,45.228z M66.281,31.667
		c-0.707-0.124-1.263-0.476-1.671-1.057c-0.407-0.581-0.55-1.225-0.425-1.931l0.298-1.695c0.123-0.706,0.476-1.263,1.057-1.671
		c0.582-0.408,1.225-0.549,1.931-0.426l22.037,3.868c0.706,0.124,1.263,0.476,1.671,1.057c0.407,0.581,0.549,1.225,0.425,1.931
		l-0.297,1.695c-0.124,0.707-0.476,1.263-1.058,1.671c-0.581,0.408-1.225,0.55-1.931,0.426L66.281,31.667z M68.661,18.106
		c-0.706-0.124-1.263-0.477-1.671-1.058c-0.407-0.581-0.549-1.225-0.425-1.931l0.297-1.695c0.124-0.707,0.476-1.264,1.058-1.671
		c0.581-0.408,1.225-0.55,1.931-0.426l22.037,3.867c0.706,0.124,1.263,0.477,1.671,1.058c0.407,0.581,0.55,1.225,0.426,1.931
		l-0.298,1.695c-0.123,0.706-0.476,1.263-1.057,1.671c-0.582,0.408-1.225,0.55-1.931,0.426L68.661,18.106z"/>
	<path id="Combined-Shape_1_" fill="#A1D5AC" d="M46.289,28.596c3.474,1.775,5.916,4.46,7.324,8.056
		c0.966,2.791,1.213,5.528,0.742,8.212l-0.52,2.966c-0.446,2.542-1.749,4.571-3.908,6.086c-2.158,1.514-4.508,2.047-7.052,1.602
		L14.058,50.46c-2.543-0.445-4.571-1.749-6.085-3.906c-1.514-2.159-2.048-4.51-1.601-7.052l0.52-2.967
		c0.47-2.685,1.635-5.173,3.494-7.468c2.547-2.902,5.758-4.595,9.628-5.081c-1.997-3.555-2.649-7.309-1.955-11.264
		c0.818-4.662,3.179-8.361,7.081-11.098c3.903-2.737,8.184-3.697,12.846-2.879c4.662,0.818,8.361,3.178,11.098,7.08
		c2.738,3.902,3.697,8.184,2.879,12.846C51.268,22.625,49.377,25.934,46.289,28.596z M36.796,5.524
		c-2.826-0.496-5.401,0.072-7.726,1.702c-2.324,1.631-3.734,3.858-4.23,6.684c-0.496,2.825,0.072,5.401,1.702,7.725
		c1.63,2.325,3.858,3.735,6.683,4.231c2.826,0.496,5.4-0.072,7.725-1.703c2.325-1.63,3.735-3.858,4.231-6.683
		c0.496-2.826-0.072-5.401-1.702-7.725C41.849,7.431,39.621,6.021,36.796,5.524z M47.055,46.64l0.52-2.966
		c0.323-1.836,0.048-3.596-0.821-5.276c-0.87-1.683-2.174-2.967-3.911-3.854l-4.227-2.053c-2.126,0.502-4.319,0.553-6.579,0.157
		c-2.261-0.397-4.305-1.194-6.134-2.387l-4.673,0.49c-1.935,0.243-3.599,1.008-4.989,2.292c-1.39,1.285-2.247,2.845-2.569,4.682
		l-0.52,2.967c-0.124,0.706,0.018,1.35,0.425,1.931c0.408,0.582,0.965,0.934,1.671,1.057l28.818,5.058
		c0.706,0.124,1.35-0.019,1.931-0.426C46.577,47.904,46.93,47.346,47.055,46.64z"/>
</g>
</svg>
